<?xml version="1.0" encoding="UTF-8"?>
<svg version="1.1" xmlns="http://www.w3.org/2000/svg" width="322" height="322">
<path d="M0 0 C3.96336207 2.67672414 3.96336207 2.67672414 5.1875 5.125 C6.363125 5.805625 6.363125 5.805625 7.5625 6.5 C10.77237737 8.48706695 12.64857939 10.36238038 13.76391602 14.01025391 C14.5963622 18.16624748 14.18158387 22.52470853 14.06054688 26.75 C14.00688552 30.32321518 14.11595685 32.9114074 15.265625 36.34375 C16.34661175 39.60503207 16.07448616 41.03158606 15 44.25 C14.73832031 45.07757813 14.47664063 45.90515625 14.20703125 46.7578125 C13.1463189 49.22061589 11.81116217 51.00403816 10.1875 53.125 C7.03823789 59.66976281 6.8265052 65.97195485 7.1875 73.125 C7.99703125 73.34929687 8.8065625 73.57359375 9.640625 73.8046875 C14.09527409 75.46291591 17.9082326 77.75166834 21.9375 80.25 C22.7330127 80.74064941 23.52852539 81.23129883 24.34814453 81.73681641 C40.01832612 91.5390695 40.01832612 91.5390695 45.1875 99.125 C45.57285288 101.11563163 45.91306742 103.11607047 46.1875 105.125 C44.8871582 105.13958252 43.58681641 105.15416504 42.24707031 105.16918945 C37.37131774 105.22764905 32.49600425 105.30487481 27.62060547 105.38745117 C25.52009262 105.4204781 23.41949577 105.44857739 21.31884766 105.47143555 C5.01517065 105.59863638 5.01517065 105.59863638 -10.8125 109.125 C-14.09032612 110.0681775 -15.47944688 110.14659996 -18.625 108.75 C-25.361269 105.77770811 -32.66674217 105.94229469 -39.90234375 105.80859375 C-40.84686905 105.78781265 -41.79139435 105.76703156 -42.76454163 105.74562073 C-45.75962573 105.68062646 -48.75479193 105.621475 -51.75 105.5625 C-53.78972178 105.51926703 -55.82943548 105.47565127 -57.86914062 105.43164062 C-62.85017788 105.32499695 -67.8312971 105.2235906 -72.8125 105.125 C-71.9830221 98.12695264 -70.4393458 95.2631303 -64.95703125 90.80078125 C-63.85310219 90.00359201 -62.74200409 89.21626307 -61.625 88.4375 C-60.7292627 87.8043689 -60.7292627 87.8043689 -59.81542969 87.15844727 C-51.87425025 81.64622674 -43.46248396 76.44999198 -34.8125 72.125 C-34.28744111 64.32204146 -35.16219343 59.00632116 -38.8125 52.125 C-41.87464694 46.18691777 -44.04855424 40.92329835 -42.8125 34.125 C-42.1525 33.465 -41.4925 32.805 -40.8125 32.125 C-40.771829 29.93748126 -40.82906465 27.74770803 -40.9375 25.5625 C-41.02853676 16.65000166 -39.14320649 11.35925157 -33.125 4.8125 C-23.93258246 -3.63777741 -11.26236734 -6.58316028 0 0 Z " fill="#265CA2" transform="translate(175.8125,99.875)"/>
<path d="M0 0 C1.25157898 -0.00335861 2.50315796 -0.00671722 3.79266357 -0.01017761 C7.20853027 -0.01802167 10.62433615 -0.02135368 14.04020762 -0.0219934 C16.18317022 -0.02270746 18.32612657 -0.0248486 20.4690876 -0.02749062 C27.97109502 -0.03673072 35.47308474 -0.04082765 42.97509766 -0.04003906 C49.92432644 -0.03944037 56.87347708 -0.04995462 63.82268614 -0.06578273 C69.82136866 -0.07894976 75.82002596 -0.08421907 81.81872278 -0.08358365 C85.38671881 -0.08333111 88.95464548 -0.08604462 92.52262688 -0.0967617 C144.71337764 -0.24242184 144.71337764 -0.24242184 164.14868164 18.39526367 C178.30545282 33.28639186 182.64055089 48.45362862 182.62670898 68.53662109 C182.63270578 69.96201932 182.63951393 71.38741433 182.64706421 72.81280518 C182.66461637 76.6581565 182.66941505 80.50341862 182.67069578 84.34880614 C182.67212431 86.75945109 182.67640713 89.17007387 182.68169022 91.58071327 C182.70015622 100.01410976 182.70836531 108.44744334 182.70678711 116.88085938 C182.70558728 124.70389382 182.7266672 132.52665169 182.75827444 140.34961623 C182.78455193 147.09735555 182.7951496 153.84500519 182.79387629 160.59279519 C182.79336993 164.60901761 182.79887014 168.62499399 182.82023239 172.64116478 C182.83980914 176.4244524 182.83960904 180.20726419 182.82519913 183.99057007 C182.8221608 186.01414845 182.83865104 188.03772791 182.8560791 190.06123352 C182.72948868 208.81895545 176.60190338 223.81080762 163.33618164 237.14526367 C162.74450195 237.77174805 162.15282227 238.39823242 161.54321289 239.04370117 C157.43037907 243.05666485 152.77008541 245.75851636 147.71118164 248.39526367 C147.09686279 248.72478027 146.48254395 249.05429687 145.84960938 249.39379883 C134.97389145 254.77999985 122.97822803 255.59249244 111.04150391 255.54931641 C109.67462615 255.55503852 108.30775316 255.56200977 106.94088745 255.57011414 C103.27340033 255.58785688 99.60615489 255.58691347 95.93863797 255.58117175 C92.85752532 255.57805252 89.7764573 255.5842023 86.69535106 255.5902105 C79.41763016 255.60419183 72.14002681 255.60274782 64.86230469 255.59130859 C57.39589409 255.57983093 49.92984286 255.59391164 42.46347958 255.62070507 C36.01288465 255.64297234 29.56240162 255.64947488 23.11177105 255.64362866 C19.27670762 255.6402844 15.44187442 255.6425031 11.60684395 255.65987968 C7.99747843 255.67552459 4.3886391 255.67120302 0.77929306 255.65257454 C-1.14880992 255.64722496 -3.07693758 255.66126761 -5.00498962 255.67626953 C-24.09459738 255.51808581 -40.85162715 248.57487379 -54.59350586 235.27807617 C-67.47638395 221.4790823 -71.29315626 205.26217158 -71.19726562 186.92675781 C-71.20434774 185.47268306 -71.21310222 184.01861566 -71.22337341 182.56455994 C-71.24562037 178.66354801 -71.24298657 174.76294647 -71.23405194 170.8618958 C-71.22889303 167.58447615 -71.23627387 164.30713036 -71.24352401 161.02971834 C-71.26044448 153.28829945 -71.25703687 145.54707805 -71.24023438 137.80566406 C-71.22331777 129.8637376 -71.23915895 121.92236102 -71.27145725 113.98049456 C-71.2982881 107.11881144 -71.30539311 100.25729807 -71.29694217 93.39556783 C-71.29205242 89.31620562 -71.29401107 85.23717377 -71.31472969 81.15785408 C-71.33330127 77.31856315 -71.32687175 73.48005324 -71.30253029 69.64080238 C-71.29758965 68.24620182 -71.3008324 66.85153944 -71.31367874 65.45698929 C-71.46571096 47.5090135 -65.60259033 31.53997879 -53.35131836 18.27026367 C-37.88379656 4.12750647 -20.34863764 -0.00788534 0 0 Z M-54.47631836 25.08276367 C-66.03892045 39.00674225 -68.97399418 55.22223847 -68.93847656 72.83984375 C-68.94283507 74.1783425 -68.94802197 75.51683877 -68.95396423 76.85533142 C-68.96724437 80.45883953 -68.9679452 84.06224205 -68.96540093 87.66576982 C-68.96432353 90.68965501 -68.96923419 93.71351952 -68.97400635 96.73740023 C-68.98506396 103.8802881 -68.9855604 111.02312336 -68.97949219 118.16601562 C-68.97345773 125.49883418 -68.98575857 132.83146059 -69.00706226 140.16424638 C-69.02476141 146.49246009 -69.03066653 152.82061311 -69.02742451 159.14885062 C-69.02562442 162.91402814 -69.02811868 166.67906863 -69.04213905 170.4442234 C-69.05484889 173.98944364 -69.05265131 177.53436767 -69.03972816 181.07958412 C-69.03629019 182.97570212 -69.04744308 184.87182975 -69.05929565 186.76791382 C-68.95376031 204.28867543 -64.20835758 218.87419738 -52.66381836 232.14526367 C-52.18944336 232.73694336 -51.71506836 233.32862305 -51.22631836 233.93823242 C-41.25794986 245.28244344 -25.27895045 250.86258607 -10.66381836 252.14526367 C-6.42126796 252.29195991 -2.18131135 252.29216346 2.06347656 252.29052734 C3.95048279 252.29556526 3.95048279 252.29556526 5.87561035 252.30070496 C9.30772314 252.30949128 12.73981094 252.31188084 16.17193389 252.31252074 C18.32290575 252.3132345 20.47387138 252.31537499 22.62484169 252.31801796 C30.14817325 252.32725487 37.67148717 252.33135508 45.19482422 252.33056641 C52.17594243 252.32996663 59.15698311 252.34050311 66.13808173 252.35631007 C72.15708372 252.36944642 78.17606057 252.37474773 84.19507676 252.374111 C87.77859467 252.37385772 91.36204365 252.37661354 94.9455471 252.38728905 C98.95105539 252.39889706 102.9563934 252.39418617 106.96191406 252.38818359 C108.71037376 252.39661285 108.71037376 252.39661285 110.49415588 252.4052124 C130.69397556 252.32878204 148.00222162 247.69568528 162.64868164 233.33276367 C177.10492886 218.5220285 180.47796192 200.65750771 180.49731445 180.57324219 C180.50227936 179.33141678 180.50724426 178.08959137 180.51235962 176.81013489 C180.5244126 173.42112978 180.53191247 170.03218594 180.53637028 166.64316678 C180.53931664 164.51695514 180.5434244 162.39074871 180.54787445 160.26453972 C180.56153077 153.58659505 180.57120489 146.9086625 180.57507634 140.23070484 C180.57954391 132.57025852 180.59703887 124.90999179 180.62607694 117.24959999 C180.64784065 111.29762629 180.65778848 105.34570256 180.65911746 99.39368957 C180.66015564 95.85359663 180.66584806 92.31367289 180.68393707 88.77362251 C181.45558365 62.46012279 181.45558365 62.46012279 173.71118164 37.70776367 C173.36490723 37.05291992 173.01863281 36.39807617 172.66186523 35.72338867 C165.1447567 22.08160244 152.32796551 11.10387741 137.50805664 6.21166992 C128.12396493 3.53233226 119.41465695 2.99332065 109.6940918 2.98413086 C108.43290527 2.97916595 107.17171875 2.97420105 105.87231445 2.96908569 C102.42541694 2.95602828 98.97853886 2.94952884 95.5316205 2.94507504 C93.36973472 2.94213117 91.20785408 2.93802379 89.04597092 2.93357086 C82.258032 2.91990828 75.47010505 2.91023776 68.68215334 2.90636897 C60.89208707 2.90190277 53.10219753 2.88441689 45.31218493 2.85536838 C39.26256771 2.83360715 33.21299965 2.82365693 27.16334379 2.82232785 C23.56399233 2.82128931 19.96480722 2.81558897 16.36549759 2.79750824 C-11.05168165 2.66793877 -34.63019532 3.61828725 -54.47631836 25.08276367 Z " fill="#EEEEEF" transform="translate(106.663818359375,37.854736328125)"/>
<path d="M0 0 C0.83161652 -0.00630432 1.66323303 -0.01260864 2.52005005 -0.019104 C3.41690521 -0.01505554 4.31376038 -0.01100708 5.23779297 -0.00683594 C6.166633 -0.00874939 7.09547302 -0.01066284 8.05245972 -0.01263428 C10.02114126 -0.01399602 11.98983178 -0.01030036 13.95849609 -0.00195312 C16.9476386 0.00867408 19.93617009 -0.00181111 22.92529297 -0.01464844 C24.84196095 -0.01332542 26.75862855 -0.0107601 28.67529297 -0.00683594 C30.00235764 -0.01290863 30.00235764 -0.01290863 31.35623169 -0.019104 C37.69456558 0.02787719 44.22089003 0.38189541 49.94802856 3.33978271 C53.35858882 4.98341437 56.53871374 3.70253985 59.99537659 2.53720093 C66.30746815 0.42264644 71.93987817 -0.18325485 78.56982422 -0.13964844 C79.54738174 -0.14251862 80.52493927 -0.14538879 81.53211975 -0.14834595 C83.5783039 -0.15037192 85.62450807 -0.14494576 87.6706543 -0.13232422 C90.80870206 -0.11612721 93.94548564 -0.13228519 97.08349609 -0.15136719 C99.07894164 -0.14938687 101.07438641 -0.1455476 103.06982422 -0.13964844 C104.00728989 -0.14572113 104.94475555 -0.15179382 105.91062927 -0.15805054 C106.7790596 -0.14859406 107.64748993 -0.13913757 108.54223633 -0.12939453 C109.30483261 -0.12700775 110.06742889 -0.12462097 110.85313416 -0.12216187 C113.38794066 0.36021127 114.27874146 1.25456793 115.85498047 3.25878906 C116.26123047 5.19628906 116.26123047 5.19628906 116.35498047 7.25878906 C116.65523282 10.76599201 117.23920595 11.8704732 119.85498047 14.25878906 C120.16748047 16.82128906 120.16748047 16.82128906 119.85498047 19.25878906 C117.36421209 21.74955745 116.59765693 21.5129489 113.16162109 21.5300293 C112.18721069 21.54021591 111.21280029 21.55040253 110.2088623 21.56089783 C109.1536438 21.56303787 108.09842529 21.56517792 107.01123047 21.56738281 C104.79377985 21.592536 102.57633199 21.61793412 100.35888672 21.64355469 C96.84961621 21.67235956 93.34039365 21.69636688 89.83105469 21.71508789 C86.45336171 21.73665167 83.07623104 21.77607894 79.69873047 21.81738281 C78.64351196 21.81749863 77.58829346 21.81761444 76.50109863 21.81773376 C75.03948303 21.83774193 75.03948303 21.83774193 73.54833984 21.8581543 C72.68833374 21.86322495 71.82832764 21.86829559 70.94226074 21.8735199 C70.25345825 22.00065872 69.56465576 22.12779755 68.85498047 22.25878906 C67.86498047 23.74378906 67.86498047 23.74378906 66.85498047 25.25878906 C64.28881836 25.64697266 64.28881836 25.64697266 61.07763672 25.65722656 C59.92457031 25.66109375 58.77150391 25.66496094 57.58349609 25.66894531 C56.37371094 25.65734375 55.16392578 25.64574219 53.91748047 25.63378906 C52.7115625 25.64539063 51.50564453 25.65699219 50.26318359 25.66894531 C49.10882813 25.66507813 47.95447266 25.66121094 46.76513672 25.65722656 C45.70431885 25.65384277 44.64350098 25.65045898 43.55053711 25.64697266 C40.85498047 25.25878906 40.85498047 25.25878906 39.48219299 23.76055908 C37.31124886 21.75697395 36.04720779 21.87032588 33.12402344 21.84228516 C32.16648163 21.82571869 31.20893982 21.80915222 30.22238159 21.79208374 C28.67540085 21.78720444 28.67540085 21.78720444 27.09716797 21.78222656 C26.03837433 21.76664703 24.97958069 21.7510675 23.88870239 21.73501587 C20.50246923 21.68742003 17.11644323 21.6597022 13.72998047 21.63378906 C10.33652183 21.59735696 6.94318215 21.5567983 3.54983521 21.51113892 C1.43652277 21.48381255 -0.67687717 21.46250509 -2.79031372 21.44760132 C-4.21716995 21.4322081 -4.21716995 21.4322081 -5.67285156 21.41650391 C-6.93501999 21.40676041 -6.93501999 21.40676041 -8.22268677 21.39682007 C-10.14501953 21.25878906 -10.14501953 21.25878906 -11.14501953 20.25878906 C-11.18594891 17.92581473 -11.18743676 15.59173682 -11.14501953 13.25878906 C-9.82501953 12.59878906 -8.50501953 11.93878906 -7.14501953 11.25878906 C-7.17982422 10.63230469 -7.21462891 10.00582031 -7.25048828 9.36035156 C-7.29109375 8.13445312 -7.29109375 8.13445312 -7.33251953 6.88378906 C-7.36732422 6.07167969 -7.40212891 5.25957031 -7.43798828 4.42285156 C-7.34130859 3.70871094 -7.24462891 2.99457031 -7.14501953 2.25878906 C-4.07816431 0.21421892 -3.45552114 0.00753117 0 0 Z M0.85498047 9.25878906 C0.85498047 10.24878906 0.85498047 11.23878906 0.85498047 12.25878906 C16.03498047 12.25878906 31.21498047 12.25878906 46.85498047 12.25878906 C44.63489625 10.03870484 43.07677355 9.33542157 39.93769836 9.13853455 C38.85515022 9.14186546 38.85515022 9.14186546 37.75073242 9.14526367 C36.93010818 9.1453392 36.10948395 9.14541473 35.26399231 9.14549255 C33.94198067 9.15323448 33.94198067 9.15323448 32.59326172 9.16113281 C31.23457222 9.16325523 31.23457222 9.16325523 29.84843445 9.16542053 C26.95474956 9.17101905 24.06114198 9.18357125 21.16748047 9.19628906 C19.20589304 9.20130426 17.24430441 9.20586713 15.28271484 9.20996094 C10.47344025 9.22098799 5.66422347 9.23825159 0.85498047 9.25878906 Z M60.85498047 12.25878906 C76.03498047 12.25878906 91.21498047 12.25878906 106.85498047 12.25878906 C106.85498047 11.26878906 106.85498047 10.27878906 106.85498047 9.25878906 C100.94680528 9.18461354 95.03890136 9.13017472 89.13037109 9.09399414 C87.12055744 9.07891081 85.11077668 9.05844134 83.10107422 9.0324707 C80.21166871 8.99606762 77.32269851 8.97905818 74.43310547 8.96582031 C73.53505188 8.95033646 72.63699829 8.9348526 71.71173096 8.91889954 C70.8711615 8.91867294 70.03059204 8.91844635 69.16455078 8.91821289 C68.05868622 8.90822014 68.05868622 8.90822014 66.93048096 8.89802551 C64.3148406 9.19083713 64.3148406 9.19083713 60.85498047 12.25878906 Z " fill="#4271AE" transform="translate(108.14501953125,209.7412109375)"/>
<path d="M0 0 C0.83161652 -0.00630432 1.66323303 -0.01260864 2.52005005 -0.019104 C3.41690521 -0.01505554 4.31376038 -0.01100708 5.23779297 -0.00683594 C6.166633 -0.00874939 7.09547302 -0.01066284 8.05245972 -0.01263428 C10.02114126 -0.01399602 11.98983178 -0.01030036 13.95849609 -0.00195312 C16.9476386 0.00867408 19.93617009 -0.00181111 22.92529297 -0.01464844 C24.84196095 -0.01332542 26.75862855 -0.0107601 28.67529297 -0.00683594 C30.00235764 -0.01290863 30.00235764 -0.01290863 31.35623169 -0.019104 C37.69456558 0.02787719 44.22089003 0.38189541 49.94802856 3.33978271 C53.35858882 4.98341437 56.53871374 3.70253985 59.99537659 2.53720093 C66.30746815 0.42264644 71.93987817 -0.18325485 78.56982422 -0.13964844 C79.54738174 -0.14251862 80.52493927 -0.14538879 81.53211975 -0.14834595 C83.5783039 -0.15037192 85.62450807 -0.14494576 87.6706543 -0.13232422 C90.80870206 -0.11612721 93.94548564 -0.13228519 97.08349609 -0.15136719 C99.07894164 -0.14938687 101.07438641 -0.1455476 103.06982422 -0.13964844 C104.00728989 -0.14572113 104.94475555 -0.15179382 105.91062927 -0.15805054 C106.7790596 -0.14859406 107.64748993 -0.13913757 108.54223633 -0.12939453 C109.30483261 -0.12700775 110.06742889 -0.12462097 110.85313416 -0.12216187 C113.38794066 0.36021127 114.27874146 1.25456793 115.85498047 3.25878906 C116.26123047 5.19628906 116.26123047 5.19628906 116.35498047 7.25878906 C116.65523282 10.76599201 117.23920595 11.8704732 119.85498047 14.25878906 C120.16748047 16.82128906 120.16748047 16.82128906 119.85498047 19.25878906 C117.36421209 21.74955745 116.59765693 21.5129489 113.16162109 21.5300293 C112.18721069 21.54021591 111.21280029 21.55040253 110.2088623 21.56089783 C109.1536438 21.56303787 108.09842529 21.56517792 107.01123047 21.56738281 C104.79377985 21.592536 102.57633199 21.61793412 100.35888672 21.64355469 C96.84961621 21.67235956 93.34039365 21.69636688 89.83105469 21.71508789 C86.45336171 21.73665167 83.07623104 21.77607894 79.69873047 21.81738281 C78.64351196 21.81749863 77.58829346 21.81761444 76.50109863 21.81773376 C75.03948303 21.83774193 75.03948303 21.83774193 73.54833984 21.8581543 C72.68833374 21.86322495 71.82832764 21.86829559 70.94226074 21.8735199 C70.25345825 22.00065872 69.56465576 22.12779755 68.85498047 22.25878906 C67.86498047 23.74378906 67.86498047 23.74378906 66.85498047 25.25878906 C64.28881836 25.64697266 64.28881836 25.64697266 61.07763672 25.65722656 C59.92457031 25.66109375 58.77150391 25.66496094 57.58349609 25.66894531 C56.37371094 25.65734375 55.16392578 25.64574219 53.91748047 25.63378906 C52.7115625 25.64539063 51.50564453 25.65699219 50.26318359 25.66894531 C49.10882813 25.66507813 47.95447266 25.66121094 46.76513672 25.65722656 C45.70431885 25.65384277 44.64350098 25.65045898 43.55053711 25.64697266 C40.85498047 25.25878906 40.85498047 25.25878906 39.48219299 23.76055908 C37.31124886 21.75697395 36.04720779 21.87032588 33.12402344 21.84228516 C32.16648163 21.82571869 31.20893982 21.80915222 30.22238159 21.79208374 C28.67540085 21.78720444 28.67540085 21.78720444 27.09716797 21.78222656 C26.03837433 21.76664703 24.97958069 21.7510675 23.88870239 21.73501587 C20.50246923 21.68742003 17.11644323 21.6597022 13.72998047 21.63378906 C10.33652183 21.59735696 6.94318215 21.5567983 3.54983521 21.51113892 C1.43652277 21.48381255 -0.67687717 21.46250509 -2.79031372 21.44760132 C-4.21716995 21.4322081 -4.21716995 21.4322081 -5.67285156 21.41650391 C-6.93501999 21.40676041 -6.93501999 21.40676041 -8.22268677 21.39682007 C-10.14501953 21.25878906 -10.14501953 21.25878906 -11.14501953 20.25878906 C-11.18594891 17.92581473 -11.18743676 15.59173682 -11.14501953 13.25878906 C-9.82501953 12.59878906 -8.50501953 11.93878906 -7.14501953 11.25878906 C-7.17982422 10.63230469 -7.21462891 10.00582031 -7.25048828 9.36035156 C-7.29109375 8.13445312 -7.29109375 8.13445312 -7.33251953 6.88378906 C-7.36732422 6.07167969 -7.40212891 5.25957031 -7.43798828 4.42285156 C-7.34130859 3.70871094 -7.24462891 2.99457031 -7.14501953 2.25878906 C-4.07816431 0.21421892 -3.45552114 0.00753117 0 0 Z M50.85498047 8.25878906 C50.85498047 8.91878906 50.85498047 9.57878906 50.85498047 10.25878906 C50.19498047 10.58878906 49.53498047 10.91878906 48.85498047 11.25878906 C49.34998047 12.74378906 49.34998047 12.74378906 49.85498047 14.25878906 C33.02498047 14.25878906 16.19498047 14.25878906 -1.14501953 14.25878906 C-1.47501953 13.59878906 -1.80501953 12.93878906 -2.14501953 12.25878906 C-4.12501953 12.58878906 -6.10501953 12.91878906 -8.14501953 13.25878906 C-8.89459111 16.73026748 -8.89459111 16.73026748 -9.14501953 20.25878906 C-8.53558502 20.2646553 -7.92615051 20.27052155 -7.29824829 20.27656555 C-0.97179637 20.34035557 5.35414001 20.4247369 11.68017578 20.52124023 C14.0430625 20.55455466 16.40603005 20.58256603 18.76904297 20.60522461 C22.1600194 20.63865076 25.55025063 20.69096054 28.94091797 20.74707031 C30.00241058 20.75346024 31.0639032 20.75985016 32.15756226 20.76643372 C33.13842804 20.78622787 34.11929382 20.80602203 35.12988281 20.82641602 C35.99592133 20.83751907 36.86195984 20.84862213 37.75424194 20.86006165 C38.79410751 21.05743172 38.79410751 21.05743172 39.85498047 21.25878906 C40.51498047 22.24878906 41.17498047 23.23878906 41.85498047 24.25878906 C44.33820306 24.7248388 44.33820306 24.7248388 47.22998047 24.65722656 C48.29732422 24.66109375 49.36466797 24.66496094 50.46435547 24.66894531 C51.58326172 24.65734375 52.70216797 24.64574219 53.85498047 24.63378906 C55.53333984 24.65119141 55.53333984 24.65119141 57.24560547 24.66894531 C58.31294922 24.66507813 59.38029297 24.66121094 60.47998047 24.65722656 C61.46224609 24.65384277 62.44451172 24.65045898 63.45654297 24.64697266 C64.64376953 24.45482178 64.64376953 24.45482178 65.85498047 24.25878906 C66.84498047 22.77378906 66.84498047 22.77378906 67.85498047 21.25878906 C69.94898987 20.86679077 69.94898987 20.86679077 72.56420898 20.84228516 C73.54184708 20.82571869 74.51948517 20.80915222 75.52674866 20.79208374 C76.58510422 20.78883087 77.64345978 20.785578 78.73388672 20.78222656 C80.35749367 20.75885727 80.35749367 20.75885727 82.01390076 20.73501587 C85.48175316 20.68735155 88.94940278 20.65968276 92.41748047 20.63378906 C95.88898625 20.59736545 99.36037537 20.55680057 102.83177185 20.51113892 C104.99516511 20.48380048 107.15864412 20.46249837 109.32215881 20.44760132 C110.78388771 20.4322081 110.78388771 20.4322081 112.27514648 20.41650391 C113.1373732 20.41000824 113.99959991 20.40351257 114.88795471 20.39682007 C116.85771829 20.47467609 116.85771829 20.47467609 117.85498047 19.25878906 C117.8957883 17.25920543 117.89752403 15.25833652 117.85498047 13.25878906 C116.53498047 12.92878906 115.21498047 12.59878906 113.85498047 12.25878906 C113.86658203 11.62070313 113.87818359 10.98261719 113.89013672 10.32519531 C113.89916016 9.49890625 113.90818359 8.67261719 113.91748047 7.82128906 C113.92908203 6.99757812 113.94068359 6.17386719 113.95263672 5.32519531 C114.08765395 3.26714968 114.08765395 3.26714968 112.85498047 2.25878906 C111.39017243 2.13449409 109.91950959 2.07819615 108.44970703 2.05004883 C107.51072571 2.03075821 106.57174438 2.01146759 105.60430908 1.99159241 C101.25577519 1.9336851 96.90741201 1.88444637 92.55859375 1.85375977 C90.27751401 1.83231317 87.99651351 1.79837233 85.71582031 1.7512207 C67.41284692 1.21286528 67.41284692 1.21286528 50.85498047 8.25878906 Z M0.85498047 9.25878906 C0.85498047 10.24878906 0.85498047 11.23878906 0.85498047 12.25878906 C16.03498047 12.25878906 31.21498047 12.25878906 46.85498047 12.25878906 C44.63489625 10.03870484 43.07677355 9.33542157 39.93769836 9.13853455 C38.85515022 9.14186546 38.85515022 9.14186546 37.75073242 9.14526367 C36.93010818 9.1453392 36.10948395 9.14541473 35.26399231 9.14549255 C33.94198067 9.15323448 33.94198067 9.15323448 32.59326172 9.16113281 C31.23457222 9.16325523 31.23457222 9.16325523 29.84843445 9.16542053 C26.95474956 9.17101905 24.06114198 9.18357125 21.16748047 9.19628906 C19.20589304 9.20130426 17.24430441 9.20586713 15.28271484 9.20996094 C10.47344025 9.22098799 5.66422347 9.23825159 0.85498047 9.25878906 Z " fill="#7194C2" transform="translate(108.14501953125,209.7412109375)"/>
<path d="M0 0 C0.33 0 0.66 0 1 0 C1.00423194 0.60001202 1.00846388 1.20002403 1.01282406 1.81821823 C1.11676258 16.51282621 1.22548577 31.20739363 1.33933926 45.90192795 C1.39428926 53.00849706 1.44770208 60.11507114 1.49731445 67.22167969 C1.54063124 73.42590505 1.58701714 79.63009915 1.63687855 85.83427548 C1.6631042 89.11013641 1.68747754 92.38599297 1.70907402 95.66188812 C1.78826314 107.54571879 1.87779548 119.42171542 2.44555664 131.29394531 C2.48201766 132.07699413 2.51847868 132.86004295 2.55604458 133.66682053 C3.5313922 151.63434836 10.03445485 166.4292904 22.9375 179.0625 C26.86487136 182.39078082 31.02541478 184.92371661 35.5625 187.3125 C36.15603271 187.63806885 36.74956543 187.9636377 37.36108398 188.29907227 C53.11890778 196.11802598 71.99883223 194.47726598 89.08465958 194.50611091 C92.85362067 194.51559801 96.62246803 194.54180818 100.39135742 194.56611633 C107.50232783 194.60950443 114.61327581 194.63822029 121.72433758 194.66143972 C129.83102961 194.6886414 137.93760563 194.73254253 146.04421425 194.77772844 C162.69608367 194.87017728 179.34797401 194.94203832 196 195 C192.71233623 196.95718179 190.25188154 197.25104515 186.45010376 197.25396729 C184.75571671 197.26242676 184.75571671 197.26242676 183.02709961 197.27105713 C181.7917749 197.26700867 180.5564502 197.26296021 179.28369141 197.25878906 C177.326819 197.26404602 177.326819 197.26404602 175.33041382 197.26940918 C171.75127466 197.27853054 168.17225079 197.27498763 164.59310961 197.26865101 C160.83602626 197.26357908 157.07895264 197.26828676 153.3218689 197.27142334 C147.00183347 197.27506399 140.68184474 197.27026598 134.36181641 197.26074219 C127.0865522 197.2499045 119.81140051 197.25334851 112.53613913 197.264395 C106.2717629 197.27352155 100.00742024 197.2747257 93.74303949 197.26951766 C90.0102094 197.2664212 86.27743183 197.26592291 82.54460526 197.27259064 C79.0233279 197.27844024 75.50219261 197.2742307 71.98093033 197.26280212 C70.09668413 197.25896507 68.21242568 197.26477914 66.32818604 197.27105713 C45.91007095 197.17159952 30.9580244 192.56296268 16.078125 178.13671875 C3.23871779 164.41673272 -0.65584542 148.25053713 -0.45410156 129.98657227 C-0.45296934 128.5558068 -0.45361423 127.12503903 -0.45587158 125.6942749 C-0.45700507 121.86242958 -0.43372135 118.03109956 -0.40557575 114.19937253 C-0.38033045 110.17558074 -0.37820208 106.1517732 -0.37347412 102.12791443 C-0.36111153 94.53157679 -0.32838238 86.9354733 -0.28807616 79.33923811 C-0.24314748 70.68128894 -0.22131873 62.02332775 -0.20129442 53.36529076 C-0.15964258 35.57672846 -0.08942334 17.78838315 0 0 Z " fill="#ECECED" transform="translate(36,95)"/>
<path d="M0 0 C0.33 0 0.66 0 1 0 C1.77354189 4.11737757 2.13027464 8.01417109 2.14717102 12.20127869 C2.15790398 14.03645554 2.15790398 14.03645554 2.16885376 15.90870667 C2.17169353 17.25155614 2.17440532 18.59440589 2.17700195 19.93725586 C2.18327383 21.3620622 2.18992127 22.78686694 2.19691467 24.21166992 C2.21788047 28.87938312 2.22831365 33.54709634 2.23828125 38.21484375 C2.24233233 39.82854288 2.24644936 41.44224184 2.25063133 43.05594063 C2.26967072 50.64371198 2.28390142 58.23147372 2.2922433 65.81926435 C2.30199548 74.54327724 2.32826724 83.26703503 2.36874419 91.99095815 C2.39903986 98.75559086 2.41372505 105.52015102 2.41702431 112.28485018 C2.41936049 116.31456226 2.42813128 120.3440015 2.45348549 124.37364006 C2.47700664 128.17326883 2.48090467 131.97244978 2.47072411 135.77213287 C2.47000362 137.8053068 2.48892651 139.83845923 2.50878906 141.87153625 C2.40437414 160.65032134 -3.71911738 175.65030452 -17 189 C-17.59167969 189.62648438 -18.18335938 190.25296875 -18.79296875 190.8984375 C-22.90580257 194.91140118 -27.56609624 197.61325269 -32.625 200.25 C-33.23931885 200.5795166 -33.8536377 200.9090332 -34.48657227 201.24853516 C-45.42580599 206.66619239 -57.45070571 207.44420617 -69.45336914 207.35644531 C-70.83646779 207.35723882 -72.21956619 207.3593441 -73.60266113 207.36264038 C-77.31083706 207.36771238 -81.0187288 207.35436956 -84.72685933 207.33711338 C-88.6255513 207.32193209 -92.5242418 207.32324818 -96.42295837 207.32244873 C-102.95641859 207.31877434 -109.48977259 207.30389219 -116.02319336 207.28125 C-124.40292965 207.25226788 -132.78258113 207.24201313 -141.1623621 207.2375679 C-148.38896299 207.23358737 -155.61554557 207.22109613 -162.84213328 207.20722103 C-165.15696785 207.20313063 -167.47180178 207.20020095 -169.78663826 207.19742584 C-173.42043943 207.19252479 -177.05418952 207.18230789 -180.68796539 207.16798782 C-182.65375959 207.16132737 -184.6195682 207.15946419 -186.58537292 207.15774536 C-187.75840973 207.15203522 -188.93144653 207.14632507 -190.14002991 207.14044189 C-191.15701997 207.13746723 -192.17401003 207.13449257 -193.22181797 207.13142776 C-195.91390349 207.00407298 -198.37737452 206.60376858 -201 206 C-201 205.67 -201 205.34 -201 205 C-154.14 205 -107.28 205 -59 205 C-59.33 204.34 -59.66 203.68 -60 203 C-59.20078125 202.90203125 -58.4015625 202.8040625 -57.578125 202.703125 C-38.0091415 200.0388033 -23.39561343 192.31869289 -11.15234375 176.6328125 C-5.03465444 167.33893156 -2.13493875 155.95887097 -1 145 C-0.67 145 -0.34 145 0 145 C0 97.15 0 49.3 0 0 Z " fill="#F6F6F8" transform="translate(287,86)"/>
<path d="M0 0 C6.39037231 -0.02527062 12.78073183 -0.04283317 19.17114258 -0.05493164 C21.34692873 -0.05997308 23.52271147 -0.06680607 25.69848633 -0.07543945 C28.81853067 -0.08751338 31.93853038 -0.09323005 35.05859375 -0.09765625 C36.52733192 -0.10539818 36.52733192 -0.10539818 38.02574158 -0.11329651 C39.37702904 -0.11340981 39.37702904 -0.11340981 40.75561523 -0.11352539 C41.95141457 -0.11685631 41.95141457 -0.11685631 43.17137146 -0.12025452 C45 0 45 0 46 1 C46.07179964 2.51928038 46.08392007 4.04167482 46.0625 5.5625 C46.05347656 6.38878906 46.04445312 7.21507812 46.03515625 8.06640625 C46.02355469 8.70449219 46.01195312 9.34257812 46 10 C47.32 10.33 48.64 10.66 50 11 C50 12.98 50 14.96 50 17 C43.36141777 17.02532254 36.72284797 17.04285528 30.08422852 17.05493164 C27.8251092 17.05996526 25.56599314 17.06679262 23.30688477 17.07543945 C20.06265457 17.08754745 16.81846739 17.09323799 13.57421875 17.09765625 C12.05534309 17.10539818 12.05534309 17.10539818 10.50578308 17.11329651 C9.56503433 17.11337204 8.62428558 17.11344757 7.6550293 17.11352539 C6.82674118 17.115746 5.99845306 17.11796661 5.14506531 17.12025452 C3 17 3 17 0 16 C0 15.34 0 14.68 0 14 C-2.64 14 -5.28 14 -8 14 C-8.33 13.34 -8.66 12.68 -9 12 C7.17 12 23.34 12 40 12 C40 9.69 40 7.38 40 5 C25.81 5 11.62 5 -3 5 C-3 4.67 -3 4.34 -3 4 C8.55 4 20.1 4 32 4 C32 3.01 32 2.02 32 1 C21.44 1 10.88 1 0 1 C0 0.67 0 0.34 0 0 Z " fill="#1A5097" transform="translate(176,212)"/>
<path d="M0 0 C-1.794375 0.2784375 -1.794375 0.2784375 -3.625 0.5625 C-19.0461701 4.03529894 -32.21635019 14.09901435 -41 27 C-48.33990142 39.27139768 -50.13036972 51.58520484 -50.20532227 65.62670898 C-50.21522186 66.7786525 -50.22512146 67.93059601 -50.23532104 69.1174469 C-50.26681063 72.91030855 -50.29164382 76.70318271 -50.31640625 80.49609375 C-50.3369866 83.1316815 -50.35798336 85.76726603 -50.37937927 88.40284729 C-50.42916377 94.62163353 -50.47415503 100.84044473 -50.51740164 107.0592795 C-50.56689626 114.14277061 -50.62176879 121.22621691 -50.67708123 128.30966461 C-50.79068242 142.87306727 -50.89756851 157.43651454 -51 172 C-51.33 172 -51.66 172 -52 172 C-52.24848187 155.97867441 -52.46681421 139.95725633 -52.65021229 123.93506622 C-52.73607302 116.49404155 -52.83143598 109.05337512 -52.94995117 101.61279297 C-53.0533417 95.12019486 -53.13810702 88.62765233 -53.20140952 82.13453531 C-53.23549034 78.7030498 -53.2782803 75.27221874 -53.34345436 71.84117126 C-53.74838775 49.05754653 -51.78065627 30.55597366 -35.6875 13.125 C-27.38661142 5.53506715 -11.13396325 -7.42264217 0 0 Z " fill="#F7F7F7" transform="translate(89,43)"/>
<path d="M0 0 C1.31157326 -0.00956978 1.31157326 -0.00956978 2.64964294 -0.01933289 C4.07615929 -0.02100212 4.07615929 -0.02100212 5.53149414 -0.02270508 C6.98719566 -0.02769768 6.98719566 -0.02769768 8.4723053 -0.03279114 C10.52938359 -0.03786463 12.58647015 -0.04019933 14.64355469 -0.04003906 C17.79969783 -0.04222459 20.9554911 -0.06037324 24.11157227 -0.0793457 C26.10571169 -0.08227966 28.09985278 -0.08426444 30.09399414 -0.08520508 C31.0429808 -0.09239059 31.99196747 -0.09957611 32.9697113 -0.10697937 C33.84724564 -0.10390274 34.72477997 -0.10082611 35.62890625 -0.09765625 C36.4031041 -0.09908127 37.17730194 -0.10050629 37.97496033 -0.10197449 C39.87915039 0.14526367 39.87915039 0.14526367 41.87915039 2.14526367 C39.14808528 3.05561871 37.580218 3.2674208 34.77490234 3.25878906 C33.54396599 3.25867577 33.54396599 3.25867577 32.28816223 3.25856018 C30.96615059 3.25081825 30.96615059 3.25081825 29.61743164 3.24291992 C28.71163864 3.24150497 27.80584564 3.24009003 26.87260437 3.2386322 C23.97891948 3.23303368 21.0853119 3.22048148 18.19165039 3.20776367 C16.23006297 3.20274848 14.26847433 3.19818561 12.30688477 3.1940918 C7.49761018 3.18306474 2.68839339 3.16580114 -2.12084961 3.14526367 C-2.12084961 4.13526367 -2.12084961 5.12526367 -2.12084961 6.14526367 C4.07231418 6.02698352 10.26531853 5.90273257 16.45825195 5.77294922 C18.56498966 5.72964009 20.67176156 5.68796214 22.77856445 5.64794922 C25.80698958 5.5901494 28.83524324 5.52648271 31.86352539 5.46166992 C33.27622711 5.43660118 33.27622711 5.43660118 34.71746826 5.411026 C35.59807922 5.39108078 36.47869019 5.37113556 37.38598633 5.35058594 C38.15875916 5.33504166 38.93153198 5.31949738 39.72772217 5.30348206 C41.88166788 5.14507853 43.80478477 4.73308161 45.87915039 4.14526367 C46.37415039 6.12526367 46.37415039 6.12526367 46.87915039 8.14526367 C39.63442419 8.31307946 32.38955579 8.4730448 25.14453125 8.62744141 C22.67769404 8.68095162 20.21089575 8.7362876 17.74414062 8.79345703 C14.20719806 8.87511702 10.67016941 8.9503012 7.13305664 9.02416992 C6.02265518 9.05120499 4.91225372 9.07824005 3.76820374 9.10609436 C2.23672951 9.13623878 2.23672951 9.13623878 0.67431641 9.16699219 C-0.68136696 9.19697044 -0.68136696 9.19697044 -2.06443787 9.22755432 C-4.12084961 9.14526367 -4.12084961 9.14526367 -5.12084961 8.14526367 C-5.24584961 4.64526367 -5.24584961 4.64526367 -5.12084961 1.14526367 C-3.57928406 -0.39630188 -2.14639197 0.01057873 0 0 Z " fill="#809FC7" transform="translate(111.120849609375,215.854736328125)"/>
<path d="M0 0 C0.33 0.66 0.66 1.32 1 2 C14.86 2.33 28.72 2.66 43 3 C42.34 4.32 41.68 5.64 41 7 C25.16 7 9.32 7 -7 7 C-7 5.35 -7 3.7 -7 2 C-4 0 -4 0 0 0 Z " fill="#1B549F" transform="translate(106,222)"/>
<path d="M0 0 C7.06580552 -0.0506353 14.1315644 -0.0857062 21.19750977 -0.10986328 C23.60214995 -0.11993201 26.00677786 -0.13358785 28.41137695 -0.15087891 C31.86412584 -0.17508874 35.3167131 -0.18647432 38.76953125 -0.1953125 C39.84773636 -0.20563507 40.92594147 -0.21595764 42.03681946 -0.22659302 C43.53803596 -0.22681961 43.53803596 -0.22681961 45.06958008 -0.22705078 C45.95116287 -0.231492 46.83274567 -0.23593323 47.74104309 -0.24050903 C50 0 50 0 53 2 C52.67 2.66 52.34 3.32 52 4 C58.93 4 65.86 4 73 4 C73 3.01 73 2.02 73 1 C75.48355041 -0.24177521 77.13107622 -0.12036681 79.90869141 -0.11352539 C80.92959869 -0.11344986 81.95050598 -0.11337433 83.00234985 -0.11329651 C84.66021011 -0.10555458 84.66021011 -0.10555458 86.3515625 -0.09765625 C87.4807309 -0.0962413 88.60989929 -0.09482635 89.77328491 -0.09336853 C93.39054988 -0.08775744 97.00775364 -0.07520303 100.625 -0.0625 C103.07291577 -0.05748643 105.52083252 -0.05292328 107.96875 -0.04882812 C113.97918766 -0.0377844 119.98958946 -0.02103544 126 0 C126 0.33 126 0.66 126 1 C125.39056549 1.00586624 124.78113098 1.01173248 124.15322876 1.01777649 C117.82677684 1.08156651 111.50084046 1.16594784 105.17480469 1.26245117 C102.81191797 1.2957656 100.44895042 1.32377697 98.0859375 1.34643555 C94.69496107 1.3798617 91.30472984 1.43217147 87.9140625 1.48828125 C86.32182358 1.49786613 86.32182358 1.49786613 84.69741821 1.50764465 C83.71655243 1.52743881 82.73568665 1.54723297 81.72509766 1.56762695 C80.85905914 1.57873001 79.99302063 1.58983307 79.10073853 1.60127258 C78.40749481 1.73285263 77.7142511 1.86443268 77 2 C76.34 2.99 75.68 3.98 75 5 C72.6015625 5.38818359 72.6015625 5.38818359 69.625 5.3984375 C68.55765625 5.40230469 67.4903125 5.40617188 66.390625 5.41015625 C65.27171875 5.39855469 64.1528125 5.38695312 63 5.375 C61.88109375 5.38660156 60.7621875 5.39820313 59.609375 5.41015625 C58.54203125 5.40628906 57.4746875 5.40242187 56.375 5.3984375 C55.39273438 5.39505371 54.41046875 5.39166992 53.3984375 5.38818359 C52.60695312 5.26008301 51.81546875 5.13198242 51 5 C50.34 4.01 49.68 3.02 49 2 C46.82584957 1.52427183 46.82584957 1.52427183 44.27490234 1.56762695 C43.29403656 1.54783279 42.31317078 1.52803864 41.30258179 1.50764465 C40.24108917 1.50125473 39.17959656 1.49486481 38.0859375 1.48828125 C37.00116119 1.47033005 35.91638489 1.45237885 34.79873657 1.43388367 C31.32419761 1.3795769 27.84979758 1.34581932 24.375 1.3125 C22.02341808 1.27934496 19.67185454 1.24485702 17.3203125 1.20898438 C11.54699959 1.12383894 5.77366913 1.05557568 0 1 C0 0.67 0 0.34 0 0 Z " fill="#295993" transform="translate(99,229)"/>
<path d="M0 0 C4.10170395 3.57584447 5.35453562 5.6433876 6 11 C4.0494873 11.02187378 4.0494873 11.02187378 2.05957031 11.04418945 C-2.81618226 11.10264905 -7.69149575 11.17987481 -12.56689453 11.26245117 C-14.66740738 11.2954781 -16.76800423 11.32357739 -18.86865234 11.34643555 C-35.17232935 11.47363638 -35.17232935 11.47363638 -51 15 C-54.73793896 16.14805675 -56.43198078 15.68489796 -60 14 C-60 13.67 -60 13.34 -60 13 C-58.02 13 -56.04 13 -54 13 C-54 12.34 -54 11.68 -54 11 C-53.34 11 -52.68 11 -52 11 C-52 11.66 -52 12.32 -52 13 C-51.39768555 12.78561279 -50.79537109 12.57122559 -50.17480469 12.3503418 C-39.35774328 9.05514794 -28.44516139 9.66982361 -17.25 9.8125 C-15.1849056 9.82757486 -13.11980055 9.84125831 -11.0546875 9.85351562 C-6.03619166 9.88629726 -1.01821549 9.93792489 4 10 C3.525625 8.906875 3.05125 7.81375 2.5625 6.6875 C1.59812191 4.46523745 0.76833172 2.30499515 0 0 Z " fill="#AEC2DE" transform="translate(216,194)"/>
<path d="M0 0 C0 0.66 0 1.32 0 2 C-0.721875 2.350625 -1.44375 2.70125 -2.1875 3.0625 C-5.73439948 5.50591964 -6.92512994 8.13222863 -8.7890625 11.94140625 C-10 14 -10 14 -13 16 C-14.10514766 19.31544299 -14.32107631 22.20410111 -14.5625 25.6875 C-14.64628906 26.86699219 -14.73007813 28.04648438 -14.81640625 29.26171875 C-14.87699219 30.16535156 -14.93757812 31.06898438 -15 32 C-15.33 32 -15.66 32 -16 32 C-16.50319521 22.17371576 -16.65954555 14.39623259 -10.0234375 6.7109375 C-3.50220848 0 -3.50220848 0 0 0 Z " fill="#7595BF" transform="translate(151,100)"/>
<path d="M0 0 C0.33 0 0.66 0 1 0 C1.33 3.3 1.66 6.6 2 10 C1.01 10.66 0.02 11.32 -1 12 C-1.72965366 14.56282742 -1.72965366 14.56282742 -2 17 C-2.66 16.67 -3.32 16.34 -4 16 C-4 14.35 -4 12.7 -4 11 C-2.68 10.34 -1.36 9.68 0 9 C0 6.03 0 3.06 0 0 Z " fill="#6987B4" transform="translate(101,212)"/>
<path d="M0 0 C1.485 0.99 1.485 0.99 3 2 C2.67 2.66 2.34 3.32 2 4 C2.99 4.33 3.98 4.66 5 5 C5 5.66 5 6.32 5 7 C5.66 7.33 6.32 7.66 7 8 C7 10.31 7 12.62 7 15 C5.23772048 12.35658072 3.80128992 9.76922765 2.375 6.9375 C1.92898437 6.05964844 1.48296875 5.18179688 1.0234375 4.27734375 C0 2 0 2 0 0 Z " fill="#8EA8CF" transform="translate(134,144)"/>
<path d="M0 0 C-0.66 1.32 -1.32 2.64 -2 4 C-4.97 3.67 -7.94 3.34 -11 3 C-11 2.34 -11 1.68 -11 1 C-3.4025974 -1.7012987 -3.4025974 -1.7012987 0 0 Z " fill="#4371AE" transform="translate(161,217)"/>
<path d="M0 0 C0.33 0 0.66 0 1 0 C1 1.65 1 3.3 1 5 C5.29 5 9.58 5 14 5 C14 5.33 14 5.66 14 6 C9.38 6.33 4.76 6.66 0 7 C-1.04449911 3.86650268 -0.93423645 3.01031744 0 0 Z " fill="#3F6BA3" transform="translate(107,218)"/>
<path d="M0 0 C0.66 0 1.32 0 2 0 C2.33 1.32 2.66 2.64 3 4 C0.21176345 5.0326802 -0.8677274 5.04509293 -3.75 4.0625 C-4.4925 3.711875 -5.235 3.36125 -6 3 C-6 2.67 -6 2.34 -6 2 C-4.02 2 -2.04 2 0 2 C0 1.34 0 0.68 0 0 Z " fill="#87A3C9" transform="translate(162,205)"/>
<path d="M0 0 C0.66 0 1.32 0 2 0 C1.44687265 4.02992782 0.8441938 8.02022924 0 12 C-0.33 12 -0.66 12 -1 12 C-1.14285714 3.42857143 -1.14285714 3.42857143 0 0 Z " fill="#EDEDED" transform="translate(38,82)"/>
<path d="M0 0 C0.66 0 1.32 0 2 0 C2 0.66 2 1.32 2 2 C2.66 2.33 3.32 2.66 4 3 C3.01 3.33 2.02 3.66 1 4 C0.34 4.66 -0.32 5.32 -1 6 C-1.66 5.67 -2.32 5.34 -3 5 C-2.67 4.01 -2.34 3.02 -2 2 C-1.34 2 -0.68 2 0 2 C0 1.34 0 0.68 0 0 Z " fill="#265597" transform="translate(134,177)"/>
</svg>
